<svg width="29" height="28" viewBox="0 0 29 28" fill="none" xmlns="http://www.w3.org/2000/svg">
<path d="M4.81689 28H14.0584V18.0469H10.7381V14.7656H14.0584V10.6641C14.0584 8.40244 15.9202 6.5625 18.2088 6.5625H22.3592V9.84375H19.0389C18.1234 9.84375 17.3787 10.5797 17.3787 11.4844V14.7656H22.2094L21.656 18.0469H17.3787V28H24.8494C27.138 28 28.9998 26.1601 28.9998 23.8984V4.10156C28.9998 1.83994 27.138 0 24.8494 0H4.81689C2.52834 0 0.666504 1.83994 0.666504 4.10156V23.8984C0.666504 26.1601 2.52834 28 4.81689 28ZM2.32666 4.10156C2.32666 2.74463 3.4438 1.64062 4.81689 1.64062H24.8494C26.2225 1.64062 27.3396 2.74463 27.3396 4.10156V23.8984C27.3396 25.2554 26.2225 26.3594 24.8494 26.3594H19.0389V19.6875H23.0624L24.1691 13.125H19.0389V11.4844H24.0193V4.92188H18.2088C15.0048 4.92188 12.3983 7.49774 12.3983 10.6641V13.125H9.07795V19.6875H12.3983V26.3594H4.81689C3.4438 26.3594 2.32666 25.2554 2.32666 23.8984V4.10156Z" fill="white"/>
</svg>
