<svg width="29" height="28" viewBox="0 0 29 28" fill="none" xmlns="http://www.w3.org/2000/svg">
<path d="M5.60763 28H22.7257C25.8175 28 28.3333 25.5138 28.3333 22.4583V5.54167C28.3333 2.48617 25.8175 0 22.7257 0H5.60763C2.51576 0 0 2.48617 0 5.54167V22.4583C0 25.5138 2.51576 28 5.60763 28ZM1.77083 5.54167C1.77083 3.451 3.49208 1.75 5.60763 1.75H22.7257C24.8412 1.75 26.5625 3.451 26.5625 5.54167V22.4583C26.5625 24.549 24.8412 26.25 22.7257 26.25H5.60763C3.49208 26.25 1.77083 24.549 1.77083 22.4583V5.54167Z" fill="white"/>
<path d="M14.1675 21.1517C18.1577 21.1517 21.4043 17.9434 21.4043 14.0001C21.4043 10.0567 18.1577 6.84839 14.1675 6.84839C10.1772 6.84839 6.93066 10.0567 6.93066 14.0001C6.93066 17.9434 10.1772 21.1517 14.1675 21.1517ZM14.1675 8.59839C17.1814 8.59839 19.6334 11.0216 19.6334 14.0001C19.6334 16.9786 17.1814 19.4017 14.1675 19.4017C11.1535 19.4017 8.70149 16.9786 8.70149 14.0001C8.70149 11.0216 11.1535 8.59839 14.1675 8.59839Z" fill="white"/>
<path d="M21.6733 8.58891C22.8373 8.58891 23.7145 7.72558 23.7145 6.58108C23.7145 5.38758 22.7913 4.57324 21.6745 4.57324C20.5105 4.57324 19.6333 5.43658 19.6333 6.58108C19.6333 7.77224 20.5518 8.58891 21.6733 8.58891ZM21.8823 6.38858C22.2553 6.71408 21.4041 7.10958 21.4041 6.58224C21.4041 6.26724 21.8374 6.34891 21.8823 6.38858Z" fill="white"/>
</svg>
