<svg width="235" height="26" viewBox="0 0 235 26" fill="none" xmlns="http://www.w3.org/2000/svg">
<path d="M25.766 26C39.9889 26 51.5321 20.1771 51.5321 13C51.5321 5.82292 39.9889 0 25.766 0C11.5432 0 0 5.82292 0 13C0 20.1771 11.5432 26 25.766 26ZM30.6101 19.6185C30.1404 21.209 29.1269 22.5905 27.7414 23.5286C27.201 23.7725 26.6176 23.9104 26.0237 23.9349H25.766C21.4067 23.9652 17.0663 23.3664 12.883 22.1576H12.7456C12.4021 22.056 12.2303 21.8867 12.2303 21.7005C12.2339 21.6224 12.254 21.5458 12.2896 21.4758C12.3251 21.4058 12.3751 21.344 12.4364 21.2943L12.6769 21.0911C15.1824 19.205 17.9774 17.725 20.9564 16.707C22.919 15.8751 24.9468 15.2015 27.02 14.6927C28.3255 14.4219 33.1695 13.6771 30.6101 19.5508M43.6305 6.44922C43.6743 6.36658 43.7379 6.29567 43.8157 6.24259C43.8935 6.18952 43.9832 6.15587 44.0771 6.14453C44.2674 6.14967 44.4522 6.20841 44.6096 6.3138C47.6328 8.15885 49.4193 10.444 49.4193 12.9323C49.4193 17.418 43.579 21.2604 35.2136 22.9531C34.6811 23.0547 34.3204 23.0547 34.2001 22.9531C34.0799 22.8516 34.0799 22.7331 34.2001 22.5469C34.2637 22.438 34.3386 22.3359 34.4234 22.2422C38.104 17.5423 41.131 12.379 43.4244 6.88932L43.6305 6.48307M20.9907 6.3138C21.4604 4.72325 22.4739 3.34175 23.8594 2.40365C24.3981 2.15729 24.9832 2.02468 25.5771 2.01432H25.766C30.1263 1.96467 34.4711 2.53477 38.6662 3.70703H38.8037C39.1472 3.80859 39.319 3.96094 39.319 4.16406C39.3123 4.24331 39.289 4.32032 39.2505 4.39024C39.2121 4.46016 39.1594 4.52147 39.0957 4.57031L38.8724 4.77344C36.3616 6.64737 33.5677 8.12106 30.5929 9.14062C28.6521 10.009 26.6483 10.7332 24.598 11.3073C23.2753 11.5781 18.4313 12.306 20.9907 6.43229M16.3185 3.04688C16.851 2.94531 17.2117 2.94531 17.3491 3.04688C17.3913 3.10648 17.4138 3.17737 17.4138 3.25C17.4138 3.32263 17.3913 3.39352 17.3491 3.45312C17.2887 3.55882 17.2135 3.65568 17.1258 3.74089C13.4453 8.44081 10.4182 13.6041 8.12489 19.0938C8.12489 19.263 7.9703 19.4154 7.91876 19.5169C7.88096 19.5992 7.82087 19.6695 7.74511 19.7203C7.66935 19.7711 7.58084 19.8003 7.48933 19.8047C7.26436 19.8179 7.04289 19.7451 6.87094 19.6016C3.84773 17.7734 2.06128 15.4714 2.06128 13C2.06128 8.51432 7.90159 4.65495 16.267 2.97917" fill="#2B519B"/>
<path d="M61.7494 22.0052V3.5393H65.7113V11.1583H73.7541V3.5393H77.7068V22.0052H73.7541V14.3772H65.7113V22.0052H61.7494Z" fill="#2B519B"/>
<path d="M79.8753 3.5393H84.313L88.586 11.4919H88.769L93.042 3.5393H97.4797L90.6447 15.4772V22.0052H86.7103V15.4772L79.8753 3.5393Z" fill="#2B519B"/>
<path d="M111.218 3.5393H115.18V15.5313C115.18 16.8778 114.854 18.056 114.201 19.0658C113.555 20.0757 112.649 20.8631 111.484 21.4281C110.319 21.9872 108.961 22.2667 107.412 22.2667C105.856 22.2667 104.496 21.9872 103.331 21.4281C102.166 20.8631 101.26 20.0757 100.614 19.0658C99.9669 18.056 99.6436 16.8778 99.6436 15.5313V3.5393H103.606V15.1977C103.606 15.901 103.761 16.5261 104.072 17.0732C104.389 17.6202 104.835 18.0499 105.408 18.3625C105.981 18.6751 106.649 18.8314 107.412 18.8314C108.18 18.8314 108.848 18.6751 109.416 18.3625C109.989 18.0499 110.431 17.6202 110.742 17.0732C111.06 16.5261 111.218 15.901 111.218 15.1977V3.5393Z" fill="#2B519B"/>
<path d="M134.114 3.5393V22.0052H130.691L122.539 10.3829H122.402V22.0052H118.44V3.5393H121.917L130.005 15.1526H130.17V3.5393H134.114Z" fill="#2B519B"/>
<path d="M144.03 22.0052H137.387V3.5393H144.085C145.969 3.5393 147.592 3.90898 148.952 4.64834C150.313 5.38168 151.359 6.43662 152.091 7.81315C152.829 9.18967 153.198 10.8367 153.198 12.7542C153.198 14.6778 152.829 16.3308 152.091 17.7133C151.359 19.0959 150.306 20.1568 148.934 20.8962C147.568 21.6355 145.933 22.0052 144.03 22.0052ZM141.349 18.6601H143.865C145.036 18.6601 146.021 18.4557 146.82 18.0469C147.626 17.6322 148.229 16.992 148.632 16.1264C149.041 15.2548 149.245 14.1307 149.245 12.7542C149.245 11.3897 149.041 10.2747 148.632 9.40908C148.229 8.54349 147.629 7.90632 146.83 7.49757C146.03 7.08882 145.045 6.88444 143.874 6.88444H141.349V18.6601Z" fill="#2B519B"/>
<path d="M158.306 22.0052H154.06L160.529 3.5393H165.635L172.095 22.0052H167.849L163.155 7.75905H163.009L158.306 22.0052ZM158.04 14.7469H168.069V17.7945H158.04V14.7469Z" fill="#2B519B"/>
<path d="M178.312 3.5393V22.0052H174.35V3.5393H178.312Z" fill="#2B519B"/>
<path d="M190.255 11.2485V14.2961H181.709V11.2485H190.255Z" fill="#2B519B"/>
<path d="M193.649 22.0052V3.5393H201.043C202.458 3.5393 203.666 3.78876 204.666 4.28767C205.672 4.78058 206.438 5.48086 206.963 6.38853C207.493 7.29019 207.759 8.35113 207.759 9.57138C207.759 10.7976 207.49 11.8526 206.953 12.7362C206.417 13.6138 205.639 14.287 204.62 14.7559C203.608 15.2248 202.381 15.4592 200.942 15.4592H195.992V12.3214H200.301C201.058 12.3214 201.686 12.2192 202.186 12.0149C202.686 11.8105 203.059 11.5039 203.303 11.0952C203.553 10.6864 203.678 10.1785 203.678 9.57138C203.678 8.95825 203.553 8.4413 203.303 8.02053C203.059 7.59975 202.683 7.28117 202.177 7.06477C201.677 6.84236 201.046 6.73116 200.283 6.73116H197.611V22.0052H193.649ZM203.769 13.6018L208.426 22.0052H204.053L199.496 13.6018H203.769Z" fill="#2B519B"/>
<path d="M214.52 3.5393V22.0052H210.558V3.5393H214.52Z" fill="#2B519B"/>
<path d="M235 12.7723C235 14.786 234.613 16.4991 233.838 17.9117C233.069 19.3243 232.02 20.4033 230.69 21.1486C229.367 21.888 227.878 22.2577 226.225 22.2577C224.56 22.2577 223.066 21.885 221.742 21.1396C220.418 20.3942 219.372 19.3153 218.603 17.9027C217.835 16.4901 217.451 14.7799 217.451 12.7723C217.451 10.7586 217.835 9.04541 218.603 7.63282C219.372 6.22022 220.418 5.14425 221.742 4.40489C223.066 3.65952 224.56 3.28683 226.225 3.28683C227.878 3.28683 229.367 3.65952 230.69 4.40489C232.02 5.14425 233.069 6.22022 233.838 7.63282C234.613 9.04541 235 10.7586 235 12.7723ZM230.983 12.7723C230.983 11.4679 230.785 10.3678 230.388 9.47219C229.998 8.57655 229.446 7.8973 228.732 7.43445C228.019 6.9716 227.183 6.74018 226.225 6.74018C225.268 6.74018 224.432 6.9716 223.718 7.43445C223.005 7.8973 222.449 8.57655 222.053 9.47219C221.663 10.3678 221.467 11.4679 221.467 12.7723C221.467 14.0766 221.663 15.1767 222.053 16.0723C222.449 16.968 223.005 17.6472 223.718 18.1101C224.432 18.5729 225.268 18.8043 226.225 18.8043C227.183 18.8043 228.019 18.5729 228.732 18.1101C229.446 17.6472 229.998 16.968 230.388 16.0723C230.785 15.1767 230.983 14.0766 230.983 12.7723Z" fill="#2B519B"/>
</svg>
